<svg width="18.000000" height="21.000000" viewBox="0 0 18 21" fill="none" xmlns="http://www.w3.org/2000/svg" xmlns:xlink="http://www.w3.org/1999/xlink">
	<desc>
			Created with Pixso.
	</desc>
	<defs/>
	<path id="Mask" d="M14 5L16 5C17.1 5 18 5.8999 18 7L18 19C18 20.1001 17.1 21 16 21L2 21C0.900024 21 0 20.1001 0 19L0.0100098 7C0.0100098 5.8999 0.900024 5 2 5L4 5C4 2.23999 6.23999 0 9 0C11.76 0 14 2.23999 14 5ZM9 2C10.66 2 12 3.34009 12 5L6 5C6 3.34009 7.33997 2 9 2ZM4 7C4 9.76001 6.23999 12 9 12C11.76 12 14 9.76001 14 7L12 7C12 8.65991 10.66 10 9 10C7.33997 10 6 8.65991 6 7L4 7Z" clip-rule="evenodd" fill="#FFFFFF" fill-opacity="1.000000" fill-rule="evenodd"/>
</svg>
