<svg width="16.000000" height="16.000000" viewBox="0 0 16 16" fill="none" xmlns="http://www.w3.org/2000/svg" xmlns:xlink="http://www.w3.org/1999/xlink">
	<desc>
			Created with Pixso.
	</desc>
	<defs/>
	<path id="Mask" d="M6 8C4.90002 8 4 8.8999 4 10C4 11.1001 4.90002 12 6 12C7.09998 12 8 11.1001 8 10C8 8.8999 7.09998 8 6 8ZM2 4C0.900024 4 0 4.8999 0 6C0 7.1001 0.900024 8 2 8C3.09998 8 4 7.1001 4 6C4 4.8999 3.09998 4 2 4ZM2 12C0.900024 12 0 12.8999 0 14C0 15.1001 0.900024 16 2 16C3.09998 16 4 15.1001 4 14C4 12.8999 3.09998 12 2 12ZM14 4C15.1 4 16 3.1001 16 2C16 0.899902 15.1 0 14 0C12.9 0 12 0.899902 12 2C12 3.1001 12.9 4 14 4ZM10 12C8.90002 12 8 12.8999 8 14C8 15.1001 8.90002 16 10 16C11.1 16 12 15.1001 12 14C12 12.8999 11.1 12 10 12ZM14 8C12.9 8 12 8.8999 12 10C12 11.1001 12.9 12 14 12C15.1 12 16 11.1001 16 10C16 8.8999 15.1 8 14 8ZM10 4C8.90002 4 8 4.8999 8 6C8 7.1001 8.90002 8 10 8C11.1 8 12 7.1001 12 6C12 4.8999 11.1 4 10 4ZM6 0C4.90002 0 4 0.899902 4 2C4 3.1001 4.90002 4 6 4C7.09998 4 8 3.1001 8 2C8 0.899902 7.09998 0 6 0Z" clip-rule="evenodd" fill="#FFFFFF" fill-opacity="1.000000" fill-rule="evenodd"/>
</svg>
