<svg width="111.167969" height="27.683960" viewBox="0 0 111.168 27.684" fill="none" xmlns="http://www.w3.org/2000/svg" xmlns:xlink="http://www.w3.org/1999/xlink">
	<desc>
			Created with Pixso.
	</desc>
	<defs/>
	<path id="Path" d="M8.89 27.68C6.73 27.68 4.85 27.17 3.25 26.15C1.66 25.13 0.57 23.75 0 22.03L3.95 20.15C4.46 21.21 5.14 22.04 6.01 22.64C6.87 23.24 7.83 23.54 8.89 23.54C9.65 23.54 10.24 23.38 10.65 23.07C11.06 22.76 11.26 22.33 11.26 21.77C11.26 21.49 11.19 21.24 11.05 21.04C10.9 20.83 10.69 20.65 10.4 20.48C10.11 20.31 9.75 20.17 9.32 20.05L5.97 19.11C4.36 18.65 3.13 17.92 2.26 16.9C1.4 15.88 0.97 14.67 0.97 13.28C0.97 12.05 1.28 10.99 1.9 10.08C2.53 9.16 3.4 8.45 4.53 7.93C5.66 7.42 6.95 7.16 8.42 7.16C10.34 7.16 12.03 7.61 13.48 8.51C14.93 9.41 15.96 10.67 16.56 12.31L12.56 14.18C12.27 13.36 11.75 12.71 10.99 12.22C10.24 11.73 9.38 11.48 8.42 11.48C7.72 11.48 7.18 11.62 6.78 11.91C6.38 12.2 6.19 12.6 6.19 13.1C6.19 13.36 6.26 13.6 6.4 13.82C6.55 14.03 6.78 14.23 7.11 14.39C7.43 14.56 7.83 14.72 8.31 14.86L11.44 15.8C13.08 16.28 14.32 17 15.19 17.98C16.05 18.95 16.48 20.14 16.48 21.56C16.48 22.78 16.16 23.85 15.53 24.76C14.89 25.67 14.01 26.39 12.88 26.9C11.76 27.42 10.42 27.68 8.89 27.68Z" fill="#13183F" fill-opacity="1.000000" fill-rule="nonzero"/>
	<path id="Path" d="M19.72 27.25L19.72 0L25.12 0L25.12 17.45L23.11 16.81L31.78 7.59L38.44 7.59L31.32 15.51L38.41 27.25L32.29 27.25L26.35 17.28L29.48 16.48L23.47 23.04L25.12 19.9L25.12 27.25L19.72 27.25Z" fill="#13183F" fill-opacity="1.000000" fill-rule="nonzero"/>
	<path id="Shape" d="M40.824 0.432007L40.824 5.83203L46.2239 5.83203L46.2239 0.432007L40.824 0.432007ZM40.824 7.59595L40.824 27.252L46.2239 27.252L46.2239 7.59595L40.824 7.59595Z" clip-rule="evenodd" fill="#13183F" fill-opacity="1.000000" fill-rule="evenodd"/>
	<path id="Path" d="M50.18 27.25L50.18 0L55.58 0L55.58 27.25L50.18 27.25Z" fill="#13183F" fill-opacity="1.000000" fill-rule="nonzero"/>
	<path id="Path" d="M59.54 27.25L59.54 0L64.94 0L64.94 27.25L59.54 27.25Z" fill="#13183F" fill-opacity="1.000000" fill-rule="nonzero"/>
	<path id="Path" d="M78.37 27.68C76.28 27.68 74.47 27.22 72.93 26.29C71.4 25.37 70.21 24.13 69.37 22.57C68.53 21.01 68.11 19.28 68.11 17.38C68.11 15.41 68.55 13.66 69.42 12.13C70.3 10.59 71.48 9.38 72.97 8.49C74.46 7.6 76.14 7.16 78.01 7.16C79.57 7.16 80.95 7.4 82.15 7.9C83.35 8.39 84.36 9.08 85.19 9.97C86.02 10.86 86.65 11.88 87.08 13.04C87.51 14.21 87.73 15.48 87.73 16.84C87.73 17.23 87.71 17.61 87.67 17.98C87.64 18.35 87.57 18.67 87.48 18.93L72.75 18.93L72.75 14.97L84.42 14.97L81.86 16.84C82.1 15.81 82.09 14.89 81.82 14.09C81.56 13.28 81.1 12.65 80.44 12.18C79.78 11.71 78.97 11.48 78.01 11.48C77.07 11.48 76.27 11.71 75.6 12.16C74.92 12.62 74.42 13.29 74.08 14.18C73.75 15.07 73.62 16.15 73.69 17.42C73.59 18.52 73.72 19.5 74.08 20.34C74.44 21.17 75 21.83 75.74 22.3C76.48 22.76 77.38 23 78.44 23C79.4 23 80.22 22.81 80.91 22.42C81.59 22.04 82.12 21.51 82.51 20.84L86.83 22.89C86.44 23.85 85.84 24.69 85.01 25.41C84.18 26.13 83.2 26.69 82.08 27.09C80.95 27.48 79.71 27.68 78.37 27.68Z" fill="#13183F" fill-opacity="1.000000" fill-rule="nonzero"/>
	<path id="Shape" d="M100.152 27.684Q97.8918 27.684 96.0085 26.8416Q95.4919 26.6105 95.0039 26.316Q93.9841 25.7009 93.1572 24.8894Q92.145 23.8959 91.4219 22.608Q91.0588 21.9615 90.7961 21.2765L90.7961 21.2765Q90.1079 19.4822 90.1079 17.424Q90.1079 15.2048 90.8987 13.317L90.8987 13.3169Q91.1343 12.7548 91.4399 12.222Q92.1621 10.963 93.1594 9.98462Q94.0015 9.15833 95.0398 8.53198Q95.718 8.12305 96.4443 7.8363L96.4443 7.8363Q98.1475 7.16394 100.116 7.16394Q102.276 7.16394 103.95 7.974C104.647 8.3114 105.253 8.7356 105.768 9.24634L105.768 0L111.168 0L111.168 27.252L106.128 27.252L106.128 25.3958Q106.068 25.4609 106.006 25.5242Q105.137 26.4161 103.896 26.946Q103.767 27.0012 103.635 27.0524Q102.017 27.684 100.152 27.684ZM103.141 22.283Q102.113 22.824 100.8 22.824Q99.6125 22.824 98.6233 22.3815Q98.3828 22.2738 98.1538 22.14Q97.6533 21.8473 97.2483 21.4557Q96.7065 20.9323 96.3359 20.2321Q95.688 19.0081 95.688 17.424Q95.688 15.84 96.3359 14.634Q96.6677 14.0165 97.1362 13.5311Q97.583 13.0686 98.1538 12.726Q98.4229 12.5647 98.708 12.4404Q99.6631 12.024 100.8 12.024Q102.113 12.024 103.141 12.5651Q103.269 12.6323 103.392 12.708Q103.758 12.9323 104.071 13.2145Q104.714 13.7932 105.138 14.616Q105.768 15.84 105.768 17.424Q105.768 19.0081 105.138 20.2321Q104.714 21.0548 104.071 21.6335Q103.758 21.9158 103.392 22.14Q103.269 22.2157 103.141 22.283Z" clip-rule="evenodd" fill="#13183F" fill-opacity="1.000000" fill-rule="evenodd"/>
</svg>
