<svg width="20.000000" height="18.000000" viewBox="0 0 20 18" fill="none" xmlns="http://www.w3.org/2000/svg" xmlns:xlink="http://www.w3.org/1999/xlink">
	<desc>
			Created with Pixso.
	</desc>
	<defs/>
	<path id="Mask" d="M7 0L5.16992 2L2 2C0.899902 2 0 2.8999 0 4L0 16C0 17.1001 0.899902 18 2 18L18 18C19.1001 18 20 17.1001 20 16L20 4C20 2.8999 19.1001 2 18 2L14.8301 2L13 0L7 0ZM5 10C5 12.76 7.23999 15 10 15C12.76 15 15 12.76 15 10C15 7.23999 12.76 5 10 5C7.23999 5 5 7.23999 5 10ZM6.80005 10C6.80005 8.23267 8.23267 6.80005 10 6.80005C11.7673 6.80005 13.2 8.23267 13.2 10C13.2 11.7673 11.7673 13.2 10 13.2C8.23267 13.2 6.80005 11.7673 6.80005 10Z" clip-rule="evenodd" fill="#FFFFFF" fill-opacity="1.000000" fill-rule="evenodd"/>
</svg>
